HIERARCHY
ROOT Hips
{
	OFFSET 0.00000 0.00000 0.00000
	CHANNELS 6 Xposition Yposition Zposition Zrotation Yrotation Xrotation 
	JOINT LHipJoint
	{
		OFFSET 0 0 0
		CHANNELS 3 Zrotation Yrotation Xrotation
		JOINT LeftUpLeg
		{
			OFFSET 1.55766 -1.60504 1.11378
			CHANNELS 3 Zrotation Yrotation Xrotation
			JOINT LeftLeg
			{
				OFFSET 2.29047 -6.29302 0.00000
				CHANNELS 3 Zrotation Yrotation Xrotation
				JOINT LeftFoot
				{
					OFFSET 2.52265 -6.93093 0.00000
					CHANNELS 3 Zrotation Yrotation Xrotation
					JOINT LeftToeBase
					{
						OFFSET 0.17633 -0.48446 2.02656
						CHANNELS 3 Zrotation Yrotation Xrotation
						End Site
						{
							OFFSET 0.00000 -0.00000 1.04989
						}
					}
				}
			}
		}
	}
	JOINT RHipJoint
	{
		OFFSET 0 0 0
		CHANNELS 3 Zrotation Yrotation Xrotation
		JOINT RightUpLeg
		{
			OFFSET -1.48599 -1.60504 1.11378
			CHANNELS 3 Zrotation Yrotation Xrotation
			JOINT RightLeg
			{
				OFFSET -2.27280 -6.24448 0.00000
				CHANNELS 3 Zrotation Yrotation Xrotation
				JOINT RightFoot
				{
					OFFSET -2.50834 -6.89161 0.00000
					CHANNELS 3 Zrotation Yrotation Xrotation
					JOINT RightToeBase
					{
						OFFSET -0.26967 -0.74090 2.08741
						CHANNELS 3 Zrotation Yrotation Xrotation
						End Site
						{
							OFFSET -0.00000 -0.00000 1.10614
						}
					}
				}
			}
		}
	}
	JOINT LowerBack
	{
		OFFSET 0 0 0
		CHANNELS 3 Zrotation Yrotation Xrotation
		JOINT Spine
		{
			OFFSET 0.06481 2.02437 -0.08472
			CHANNELS 3 Zrotation Yrotation Xrotation
			JOINT Spine1
			{
				OFFSET 0.00015 1.96711 0.18069
				CHANNELS 3 Zrotation Yrotation Xrotation
				JOINT Neck
				{
					OFFSET 0 0 0
					CHANNELS 3 Zrotation Yrotation Xrotation
					JOINT Neck1
					{
						OFFSET -0.29961 1.68293 -0.13041
						CHANNELS 3 Zrotation Yrotation Xrotation
						JOINT Head
						{
							OFFSET 0.59697 1.61501 -0.14669
							CHANNELS 3 Zrotation Yrotation Xrotation
							End Site
							{
								OFFSET 0.22973 1.74906 -0.10148
							}
						}
					}
				}
				JOINT LeftShoulder
				{
					OFFSET 0 0 0
					CHANNELS 3 Zrotation Yrotation Xrotation
					JOINT LeftArm
					{
						OFFSET 3.37968 1.02893 0.31147
						CHANNELS 3 Zrotation Yrotation Xrotation
						JOINT LeftForeArm
						{
							OFFSET 5.19807 -0.00000 -0.00000
							CHANNELS 3 Zrotation Yrotation Xrotation
							JOINT LeftHand
							{
								OFFSET 3.09370 -0.00000 -0.00000
								CHANNELS 3 Zrotation Yrotation Xrotation
								JOINT LeftFingerBase
								{
									OFFSET 0 0 0
									CHANNELS 3 Zrotation Yrotation Xrotation
									JOINT LeftHandIndex1
									{
										OFFSET 0.67263 -0.00000 -0.00000
										CHANNELS 3 Zrotation Yrotation Xrotation
										End Site
										{
											OFFSET 0.54229 -0.00000 -0.00000
										}
									}
								}
								JOINT LThumb
								{
									OFFSET 0 0 0
									CHANNELS 3 Zrotation Yrotation Xrotation
									End Site
									{
										OFFSET 0.55057 -0.00000 0.55057
									}
								}
							}
						}
					}
				}
				JOINT RightShoulder
				{
					OFFSET 0 0 0
					CHANNELS 3 Zrotation Yrotation Xrotation
					JOINT RightArm
					{
						OFFSET -3.38254 0.96355 -0.16120
						CHANNELS 3 Zrotation Yrotation Xrotation
						JOINT RightForeArm
						{
							OFFSET -5.45222 -0.00000 -0.00000
							CHANNELS 3 Zrotation Yrotation Xrotation
							JOINT RightHand
							{
								OFFSET -3.01284 -0.00000 -0.00000
								CHANNELS 3 Zrotation Yrotation Xrotation
								JOINT RightFingerBase
								{
									OFFSET 0 0 0
									CHANNELS 3 Zrotation Yrotation Xrotation
									JOINT RightHandIndex1
									{
										OFFSET -0.62230 -0.00000 -0.00000
										CHANNELS 3 Zrotation Yrotation Xrotation
										End Site
										{
											OFFSET -0.50171 -0.00000 -0.00000
										}
									}
								}
								JOINT RThumb
								{
									OFFSET 0 0 0
									CHANNELS 3 Zrotation Yrotation Xrotation
									End Site
									{
										OFFSET -0.50937 -0.00000 0.50937
									}
								}
							}
						}
					}
				}
			}
		}
	}
}
MOTION
Frames: 7
Frame Time: 0.0377358
0.00 0.00 0.00 0 0 0 0 0 0 -21 0 0 0 0 0 0 0 0 0 0 0 0 0 0 21 0 0 0 0 0 0 0 0 0 0 0 0 0 0 0 0 0 0 0 0 0 0 -16 0 0 21 0 0 11 0 0 0 -8 0 0 0 0 0 0 0 0 0 0 0 0 0 0 0 0 0 0 0 0 8 0 0 0 0 0 0 0 0 0 0 0 0 0 0 0 0 0
0.00 0.00 0.00 -175.4770 -9.9571 -164.6190 0.0000 0.0000 0.0000 -13.3742 -2.7251 -28.5677 3.0143 10.7182 31.3353 1.3015 -7.6770 -20.3954 1.4164 -7.5269 -21.2861 0.0000 0.0000 0.0000 26.8117 -0.3877 -25.1101 -2.0575 -8.9848 25.7478 -0.5296 18.7439 -17.4628 -0.3700 3.9070 -10.8151 6.8378 5.2377 -13.6332 -1.6767 5.6847 -4.0292 -4.6225 2.6711 4.1925 -30.7652 -3.9783 20.9047 41.1272 -15.0254 -3.3401 22.1944 -10.7323 1.4013 0.0000 0.0000 0.0000 -28.7304 30.3815 102.8435 144.1490 -45.4103 -104.5837 -0.0000 0.0000 -116.2740 37.2493 25.8124 18.3196 -7.1250 0.0000 -0.0000 9.1185 61.0349 3.5791 0.0000 0.0000 0.0000 35.2433 -19.7037 97.1531 -135.9393 50.2999 -98.4864 0.0000 -0.0000 -67.5890 35.9807 -33.5932 -21.8856 7.1250 -0.0000 -0.0000 -44.1932 35.8119 -166.3758
0.00 0.00 0.00 -175.3940 -9.8308 -164.8400 0.0000 0.0000 0.0000 -13.0515 -3.2242 -28.1401 3.0553 10.7840 31.5550 1.3334 -6.7386 -20.6500 1.5307 -7.8114 -22.1426 0.0000 0.0000 0.0000 26.9590 0.0649 -24.6950 -2.0809 -9.0327 25.8975 -0.5870 18.2781 -17.6534 -0.3940 4.0305 -11.1625 6.8501 4.7205 -13.0011 -1.5041 5.0807 -3.6691 -4.5903 2.4051 4.1329 -30.9591 -5.0825 24.6635 41.4841 -17.3814 -6.2305 23.1949 -12.3056 1.0062 -0.0000 0.0000 0.0000 -29.2241 33.3489 97.7182 135.6184 -50.4619 -98.2392 -0.0000 0.0000 -108.3260 5.5372 34.8868 3.1737 -7.1250 0.0000 -0.0000 -32.9601 61.9167 -14.4086 -0.0000 0.0000 0.0000 36.9865 -19.8477 91.9533 -120.8109 56.0899 -86.3328 0.0000 -0.0000 -48.7302 55.8735 -9.7935 -14.0893 7.1250 -0.0000 -0.0000 -116.1444 41.2461 119.5021
0.00 0.00 0.00 -175.6460 -9.5812 -164.8390 0.0000 0.0000 0.0000 -13.1074 -3.7062 -27.8153 3.0495 10.7748 31.5241 1.3409 -5.8151 -20.7508 1.6372 -8.0655 -22.9133 0.0000 0.0000 0.0000 26.6788 1.0580 -24.5028 -2.1531 -9.1780 26.3536 -0.6885 17.3979 -17.9935 -0.4331 4.2233 -11.7058 6.2459 4.3175 -12.2921 -1.2842 4.6983 -3.4172 -4.1221 2.2306 3.8951 -30.8236 -5.9976 27.1594 41.9637 -18.9478 -8.6683 23.5112 -13.3358 0.6860 0.0000 -0.0000 0.0000 -33.2238 35.0053 91.0709 121.1874 -55.9851 -86.6450 -0.0000 0.0000 -88.1770 -40.1006 29.6327 -22.6051 -7.1250 0.0000 -0.0000 -64.7795 48.8697 -10.2127 0.0000 -0.0000 0.0000 40.3651 -19.9827 85.2985 -103.4628 59.3040 -71.6319 0.0000 -0.0000 -28.2281 62.3013 4.0310 7.6266 7.1250 -0.0000 -0.0000 -136.3939 8.1428 76.8186
0.00 0.00 0.00 -176.0150 -9.3205 -164.7260 0.0000 0.0000 0.0000 -13.2385 -4.4750 -27.5223 3.0353 10.7519 31.4478 1.3301 -4.6257 -20.7720 1.7418 -8.3061 -23.6478 0.0000 0.0000 0.0000 26.2472 2.4195 -24.4243 -2.2484 -9.3655 26.9454 -0.8099 16.1469 -18.3726 -0.4877 4.4778 -12.4250 5.4881 3.8751 -11.2568 -0.9878 4.2836 -3.3075 -3.5099 2.0236 3.3172 -30.7106 -6.7538 28.8627 42.2371 -20.0177 -10.7116 23.6769 -14.0026 0.3704 0.0000 -0.0000 0.0000 -40.1162 35.6263 81.5769 101.3903 -59.5040 -69.8479 -0.0000 0.0000 -72.5528 -62.0221 16.9630 -28.7765 -7.1250 0.0000 -0.0000 -49.6714 26.9662 39.7181 0.0000 -0.0000 0.0000 45.1918 -19.7747 77.5230 -85.5370 59.9246 -56.1359 0.0000 -0.0000 -15.1318 57.6962 6.4404 10.0601 7.1250 -0.0000 -0.0000 -134.1996 18.7631 85.8852
0.00 0.00 0.00 -176.0090 -9.1517 -164.6120 0.0000 0.0000 0.0000 -12.9085 -5.3946 -27.4367 3.0790 10.8218 31.6813 1.3242 -3.3407 -20.9120 1.8296 -8.5018 -24.2489 0.0000 0.0000 0.0000 26.2513 3.7892 -24.3153 -2.3127 -9.4891 27.3376 -0.8990 14.8868 -18.5821 -0.5420 4.7168 -13.1026 5.2997 3.5028 -10.0401 -0.6895 3.8875 -3.3893 -3.2175 1.8126 2.4902 -30.4969 -7.2468 29.9306 42.3697 -20.6203 -12.0906 23.7448 -14.3783 0.0901 0.0000 -0.0000 0.0000 -48.1289 35.0642 71.7953 80.1904 -59.6333 -51.5151 -0.0000 0.0000 -64.4040 -54.7907 16.4884 -21.9101 -7.1250 0.0000 -0.0000 -52.5664 32.6777 28.7744 0.0000 -0.0000 0.0000 51.5404 -18.9311 69.7468 -68.0340 58.0960 -41.0985 0.0000 -0.0000 -8.8507 44.2105 -0.6473 -0.6296 7.1250 -0.0000 -0.0000 -108.0522 47.2940 123.6144
0.00 0.00 0.00 -175.9650 -8.9147 -163.7540 0.0000 0.0000 0.0000 -12.1508 -7.1993 -28.2412 3.2401 11.0739 32.5294 1.2892 -0.9967 -21.1669 2.0840 -9.0388 -25.9169 0.0000 0.0000 0.0000 26.3331 6.0389 -25.0661 -2.4602 -9.7652 28.2197 -0.9923 13.2153 -18.7839 -0.6135 5.0129 -13.9453 5.2967 2.9663 -8.7212 -0.4548 3.2395 -3.8450 -3.1252 1.4424 1.2154 -30.3177 -7.6817 30.1703 42.6970 -21.3422 -12.6090 23.7526 -14.8360 0.2698 0.0000 -0.0000 0.0000 -62.8851 31.1341 56.5117 47.1664 -51.7867 -23.9291 -0.0000 0.0000 -49.7616 -2.8376 6.7633 -0.3345 -7.1250 0.0000 -0.0000 -24.3758 35.7186 6.0160 0.0000 -0.0000 0.0000 65.9140 -13.5427 54.7603 -36.0469 45.5453 -15.5559 0.0000 0.0000 0.6383 0.6886 -11.1078 -0.1327 7.1250 -0.0000 -0.0000 -29.1236 50.0369 176.0905
